<mxfile host="app.diagrams.net" modified="2021-03-03T16:01:52.116Z" agent="5.0 (X11)" etag="CQ0OKA6x8_zKbXv4JgPJ" version="14.4.3" type="github">
  <diagram id="v8CWMzZMD1nqFlNUUxB0" name="Page-1">
    <mxGraphModel dx="1369" dy="776" grid="0" gridSize="10" guides="1" tooltips="1" connect="1" arrows="1" fold="1" page="1" pageScale="1" pageWidth="850" pageHeight="1100" background="#ffffff" math="0" shadow="0">
      <root>
        <mxCell id="0" />
        <mxCell id="1" parent="0" />
        <mxCell id="re4LQ4H5sNPmYUl-ZUZS-9" style="edgeStyle=orthogonalEdgeStyle;rounded=0;orthogonalLoop=1;jettySize=auto;html=1;entryX=0.75;entryY=1;entryDx=0;entryDy=0;align=right;exitX=0.267;exitY=0.963;exitDx=0;exitDy=0;exitPerimeter=0;" edge="1" parent="1" source="re4LQ4H5sNPmYUl-ZUZS-49" target="re4LQ4H5sNPmYUl-ZUZS-21">
          <mxGeometry relative="1" as="geometry">
            <Array as="points">
              <mxPoint x="495" y="500" />
              <mxPoint x="125" y="500" />
            </Array>
            <mxPoint x="109" y="687" as="sourcePoint" />
          </mxGeometry>
        </mxCell>
        <mxCell id="re4LQ4H5sNPmYUl-ZUZS-10" value="Yêu cầu sửa điểm" style="edgeLabel;html=1;align=center;verticalAlign=middle;resizable=0;points=[];" vertex="1" connectable="0" parent="re4LQ4H5sNPmYUl-ZUZS-9">
          <mxGeometry x="0.1698" y="-2" relative="1" as="geometry">
            <mxPoint as="offset" />
          </mxGeometry>
        </mxCell>
        <mxCell id="re4LQ4H5sNPmYUl-ZUZS-15" style="edgeStyle=orthogonalEdgeStyle;orthogonalLoop=1;jettySize=auto;html=1;exitX=0.5;exitY=1;exitDx=0;exitDy=0;rounded=0;fontStyle=0;entryX=0.5;entryY=1;entryDx=0;entryDy=0;" edge="1" parent="1" source="re4LQ4H5sNPmYUl-ZUZS-21" target="re4LQ4H5sNPmYUl-ZUZS-49">
          <mxGeometry relative="1" as="geometry">
            <mxPoint x="47" y="626" as="targetPoint" />
            <Array as="points">
              <mxPoint x="95" y="537" />
              <mxPoint x="523" y="537" />
            </Array>
          </mxGeometry>
        </mxCell>
        <mxCell id="re4LQ4H5sNPmYUl-ZUZS-16" value="Xác nhận sửa điểm" style="edgeLabel;html=1;align=center;verticalAlign=middle;resizable=0;points=[];" vertex="1" connectable="0" parent="re4LQ4H5sNPmYUl-ZUZS-15">
          <mxGeometry x="-0.1342" y="4" relative="1" as="geometry">
            <mxPoint as="offset" />
          </mxGeometry>
        </mxCell>
        <mxCell id="re4LQ4H5sNPmYUl-ZUZS-21" value="BAN GIÁM HIỆU" style="rounded=0;whiteSpace=wrap;html=1;" vertex="1" parent="1">
          <mxGeometry x="35" y="323" width="120" height="60" as="geometry" />
        </mxCell>
        <mxCell id="re4LQ4H5sNPmYUl-ZUZS-33" style="edgeStyle=orthogonalEdgeStyle;rounded=0;orthogonalLoop=1;jettySize=auto;html=1;entryX=0.5;entryY=0;entryDx=0;entryDy=0;exitX=0;exitY=0.5;exitDx=0;exitDy=0;" edge="1" parent="1" source="re4LQ4H5sNPmYUl-ZUZS-50" target="re4LQ4H5sNPmYUl-ZUZS-49">
          <mxGeometry relative="1" as="geometry">
            <Array as="points">
              <mxPoint x="523" y="244" />
            </Array>
            <mxPoint x="478" y="247" as="sourcePoint" />
          </mxGeometry>
        </mxCell>
        <mxCell id="re4LQ4H5sNPmYUl-ZUZS-34" value="Yêu cầu sửa điểm" style="edgeLabel;html=1;align=center;verticalAlign=middle;resizable=0;points=[];rotation=90;" vertex="1" connectable="0" parent="re4LQ4H5sNPmYUl-ZUZS-33">
          <mxGeometry x="0.2775" y="-4" relative="1" as="geometry">
            <mxPoint x="6" y="-24" as="offset" />
          </mxGeometry>
        </mxCell>
        <mxCell id="re4LQ4H5sNPmYUl-ZUZS-52" style="edgeStyle=orthogonalEdgeStyle;rounded=0;orthogonalLoop=1;jettySize=auto;html=1;exitX=0;exitY=0.5;exitDx=0;exitDy=0;entryX=1;entryY=1;entryDx=0;entryDy=0;" edge="1" parent="1" source="re4LQ4H5sNPmYUl-ZUZS-37" target="re4LQ4H5sNPmYUl-ZUZS-21">
          <mxGeometry relative="1" as="geometry" />
        </mxCell>
        <mxCell id="re4LQ4H5sNPmYUl-ZUZS-53" value="Báo cáo điểm " style="edgeLabel;html=1;align=center;verticalAlign=middle;resizable=0;points=[];" vertex="1" connectable="0" parent="re4LQ4H5sNPmYUl-ZUZS-52">
          <mxGeometry x="-0.0233" relative="1" as="geometry">
            <mxPoint x="12" as="offset" />
          </mxGeometry>
        </mxCell>
        <mxCell id="re4LQ4H5sNPmYUl-ZUZS-37" value="Lưu trữ điểm" style="ellipse;whiteSpace=wrap;html=1;" vertex="1" parent="1">
          <mxGeometry x="271" y="399" width="120" height="80" as="geometry" />
        </mxCell>
        <mxCell id="re4LQ4H5sNPmYUl-ZUZS-56" style="edgeStyle=orthogonalEdgeStyle;rounded=0;orthogonalLoop=1;jettySize=auto;html=1;exitX=0.25;exitY=1;exitDx=0;exitDy=0;entryX=1;entryY=0;entryDx=0;entryDy=0;" edge="1" parent="1" source="re4LQ4H5sNPmYUl-ZUZS-43" target="re4LQ4H5sNPmYUl-ZUZS-37">
          <mxGeometry relative="1" as="geometry">
            <Array as="points">
              <mxPoint x="391" y="411" />
            </Array>
          </mxGeometry>
        </mxCell>
        <mxCell id="re4LQ4H5sNPmYUl-ZUZS-43" value="Bảng điểm" style="shape=partialRectangle;whiteSpace=wrap;html=1;left=0;right=0;fillColor=none;rounded=0;shadow=0;glass=0;sketch=0;" vertex="1" parent="1">
          <mxGeometry x="370" y="318" width="85" height="29" as="geometry" />
        </mxCell>
        <mxCell id="re4LQ4H5sNPmYUl-ZUZS-48" style="edgeStyle=orthogonalEdgeStyle;rounded=0;orthogonalLoop=1;jettySize=auto;html=1;exitX=0.5;exitY=1;exitDx=0;exitDy=0;entryX=0.217;entryY=0.088;entryDx=0;entryDy=0;entryPerimeter=0;" edge="1" parent="1" source="re4LQ4H5sNPmYUl-ZUZS-46" target="re4LQ4H5sNPmYUl-ZUZS-37">
          <mxGeometry relative="1" as="geometry" />
        </mxCell>
        <mxCell id="re4LQ4H5sNPmYUl-ZUZS-46" value="Bảng đánh giá" style="shape=partialRectangle;whiteSpace=wrap;html=1;left=0;right=0;fillColor=none;rounded=0;shadow=0;glass=0;sketch=0;" vertex="1" parent="1">
          <mxGeometry x="254" y="316" width="85" height="29" as="geometry" />
        </mxCell>
        <mxCell id="re4LQ4H5sNPmYUl-ZUZS-54" style="edgeStyle=orthogonalEdgeStyle;rounded=0;orthogonalLoop=1;jettySize=auto;html=1;exitX=0;exitY=0.5;exitDx=0;exitDy=0;entryX=0.75;entryY=1;entryDx=0;entryDy=0;" edge="1" parent="1" source="re4LQ4H5sNPmYUl-ZUZS-49" target="re4LQ4H5sNPmYUl-ZUZS-43">
          <mxGeometry relative="1" as="geometry" />
        </mxCell>
        <mxCell id="re4LQ4H5sNPmYUl-ZUZS-49" value="Chỉnh sửa lại điểm khi có sai sót, thi lại" style="ellipse;whiteSpace=wrap;html=1;" vertex="1" parent="1">
          <mxGeometry x="463" y="390" width="120" height="80" as="geometry" />
        </mxCell>
        <mxCell id="re4LQ4H5sNPmYUl-ZUZS-50" value="&lt;div&gt;Đánh giá &lt;br&gt;&lt;/div&gt;&lt;div&gt;năng lực&lt;/div&gt;" style="shape=partialRectangle;whiteSpace=wrap;html=1;bottom=1;right=0;left=1;top=1;fillColor=none;routingCenterX=-0.5;" vertex="1" parent="1">
          <mxGeometry x="567" y="223.49" width="119" height="41" as="geometry" />
        </mxCell>
        <mxCell id="re4LQ4H5sNPmYUl-ZUZS-51" value="" style="endArrow=none;html=1;exitX=0.125;exitY=0;exitDx=0;exitDy=0;exitPerimeter=0;entryX=0.134;entryY=1.098;entryDx=0;entryDy=0;entryPerimeter=0;" edge="1" parent="1" source="re4LQ4H5sNPmYUl-ZUZS-50" target="re4LQ4H5sNPmYUl-ZUZS-50">
          <mxGeometry width="50" height="50" relative="1" as="geometry">
            <mxPoint x="944" y="152.49" as="sourcePoint" />
            <mxPoint x="726" y="298.49" as="targetPoint" />
          </mxGeometry>
        </mxCell>
        <mxCell id="re4LQ4H5sNPmYUl-ZUZS-57" value="" style="rounded=0;whiteSpace=wrap;html=1;fillOpacity=30;fillColor=#d5e8d4;strokeColor=#82b366;dashed=1;" vertex="1" parent="1">
          <mxGeometry x="237" y="288" width="351" height="227" as="geometry" />
        </mxCell>
      </root>
    </mxGraphModel>
  </diagram>
</mxfile>
